<svg width="300" height="300" viewBox="0 0 300 300" fill="none" xmlns="http://www.w3.org/2000/svg">
<g clip-path="url(#clip0_168_2)">
<g filter="url(#filter0_d_168_2)">
<path d="M293.938 140.73C297.677 220.501 236.041 288.199 156.27 291.938C76.4992 295.677 8.80129 234.041 5.06235 154.27C1.32342 74.4992 62.9594 6.80128 142.73 3.06235C222.501 -0.676587 290.199 60.9594 293.938 140.73Z" fill="#296DE8"/>
</g>
<g filter="url(#filter1_d_168_2)">
<path fill-rule="evenodd" clip-rule="evenodd" d="M286.513 140.968C290.062 216.696 231.55 280.963 155.822 284.513C80.0935 288.062 15.8264 229.55 12.2769 153.822C8.72746 78.0935 67.2398 13.8264 142.968 10.2769C218.696 6.72745 282.963 65.2398 286.513 140.968ZM154.547 167.193C154.463 164.355 158.001 162.999 159.835 165.166L214.62 229.897C215.618 231.076 215.558 232.82 214.481 233.927L210.99 237.516C210.851 237.658 210.698 237.787 210.534 237.9L203.421 242.767L196.779 246.71L189.308 249.975L181.569 252.54L173.595 254.198L165.018 254.869L159.984 254.748C158.39 254.71 157.104 253.432 157.057 251.838L154.547 167.193ZM138.485 129.134C140.319 131.301 143.858 129.945 143.774 127.107L141.264 42.4618C141.217 40.8681 139.931 39.5899 138.337 39.5516L133.303 39.4307L124.726 40.1014L116.752 41.7599L109.013 44.3246L101.542 47.5894L94.8996 51.5332L87.787 56.4C87.6225 56.5126 87.4696 56.6413 87.3306 56.7841L83.8399 60.3728C82.7629 61.4799 82.7026 63.2237 83.7004 64.4027L138.485 129.134ZM139.353 165.44C141.235 163.315 144.742 164.752 144.594 167.587L140.152 252.273C140.071 253.816 138.832 255.045 137.289 255.113L132.288 255.336C132.089 255.345 131.889 255.334 131.692 255.303L123.177 253.975L115.637 252.297L107.958 249.557L100.563 246.123L93.6182 241.868L86.911 236.48L83.3268 232.943C82.192 231.823 82.1314 230.011 83.1888 228.818L139.353 165.44ZM153.727 126.713C153.578 129.548 157.085 130.985 158.968 128.86L215.132 65.482C216.189 64.2887 216.129 62.4769 214.994 61.357L211.41 57.8199L204.703 52.4323L197.757 48.1769L190.363 44.743L182.684 42.0028L175.144 40.3247L166.628 38.9969C166.431 38.9661 166.232 38.9551 166.033 38.964L161.031 39.1865C159.488 39.2551 158.25 40.484 158.169 42.0264L153.727 126.713ZM129.427 153.58C132.256 153.347 133.797 156.81 131.729 158.755L69.96 216.86C68.835 217.918 67.0904 217.95 65.9283 216.932L62.1615 213.635C62.0115 213.503 61.875 213.357 61.754 213.199L56.5208 206.351L52.2341 199.925L48.5819 192.636L45.6148 185.042L43.5403 177.165L42.4206 168.636L42.2773 163.602C42.2319 162.008 43.4411 160.658 45.03 160.527L129.427 153.58ZM166.591 135.544C164.524 137.489 166.064 140.952 168.893 140.719L253.29 133.773C254.879 133.642 256.088 132.291 256.043 130.698L255.899 125.664L254.78 117.134L252.705 109.258L249.738 101.664L246.086 94.3746L241.799 87.9482L236.566 81.1006C236.445 80.9422 236.309 80.7963 236.159 80.6651L232.392 77.3673C231.23 76.35 229.485 76.3811 228.36 77.4394L166.591 135.544ZM131.152 136.834C133.223 138.776 131.689 142.241 128.859 142.013L44.3298 135.205C42.7903 135.081 41.5965 133.809 41.5711 132.264L41.4885 127.259C41.4852 127.059 41.5018 126.86 41.538 126.664L43.1035 118.189L44.9917 110.699L47.9456 103.1L51.585 95.804L56.0329 88.9806L61.606 82.4266L65.2419 78.9428C66.393 77.8398 68.2059 77.8298 69.3691 78.9202L131.152 136.834ZM169.461 152.287C166.632 152.059 165.098 155.524 167.169 157.466L228.951 215.38C230.115 216.47 231.928 216.46 233.079 215.357L236.715 211.873L242.288 205.319L246.736 198.496L250.375 191.2L253.329 183.601L255.217 176.111L256.783 167.636C256.819 167.44 256.835 167.241 256.832 167.041L256.749 162.036C256.724 160.491 255.53 159.219 253.991 159.095L169.461 152.287Z" fill="white"/>
</g>
<g filter="url(#filter2_i_168_2)">
<path d="M143.774 127.107C143.858 129.945 140.319 131.301 138.485 129.134L83.7001 64.4026C82.7023 63.2237 82.7627 61.4799 83.8396 60.3728L87.3304 56.7841C87.4694 56.6412 87.6222 56.5126 87.7867 56.4L94.8994 51.5332L101.542 47.5894L109.012 44.3246L116.752 41.7599L124.726 40.1013L133.303 39.4306L138.337 39.5515C139.931 39.5898 141.216 40.8681 141.264 42.4618L143.774 127.107Z" fill="#B1C4E7" fill-opacity="0.72"/>
</g>
</g>
<defs>
<filter id="filter0_d_168_2" x="0.900879" y="2.90088" width="297.198" height="297.198" filterUnits="userSpaceOnUse" color-interpolation-filters="sRGB">
<feFlood flood-opacity="0" result="BackgroundImageFix"/>
<feColorMatrix in="SourceAlpha" type="matrix" values="0 0 0 0 0 0 0 0 0 0 0 0 0 0 0 0 0 0 127 0" result="hardAlpha"/>
<feOffset dy="4"/>
<feGaussianBlur stdDeviation="2"/>
<feComposite in2="hardAlpha" operator="out"/>
<feColorMatrix type="matrix" values="0 0 0 0 0 0 0 0 0 0 0 0 0 0 0 0 0 0 0.25 0"/>
<feBlend mode="normal" in2="BackgroundImageFix" result="effect1_dropShadow_168_2"/>
<feBlend mode="normal" in="SourceGraphic" in2="effect1_dropShadow_168_2" result="shape"/>
</filter>
<filter id="filter1_d_168_2" x="8.12354" y="10.1235" width="282.542" height="282.542" filterUnits="userSpaceOnUse" color-interpolation-filters="sRGB">
<feFlood flood-opacity="0" result="BackgroundImageFix"/>
<feColorMatrix in="SourceAlpha" type="matrix" values="0 0 0 0 0 0 0 0 0 0 0 0 0 0 0 0 0 0 127 0" result="hardAlpha"/>
<feOffset dy="4"/>
<feGaussianBlur stdDeviation="2"/>
<feComposite in2="hardAlpha" operator="out"/>
<feColorMatrix type="matrix" values="0 0 0 0 0 0 0 0 0 0 0 0 0 0 0 0 0 0 0.25 0"/>
<feBlend mode="normal" in2="BackgroundImageFix" result="effect1_dropShadow_168_2"/>
<feBlend mode="normal" in="SourceGraphic" in2="effect1_dropShadow_168_2" result="shape"/>
</filter>
<filter id="filter2_i_168_2" x="82.99" y="39.4307" width="60.7852" height="94.7721" filterUnits="userSpaceOnUse" color-interpolation-filters="sRGB">
<feFlood flood-opacity="0" result="BackgroundImageFix"/>
<feBlend mode="normal" in="SourceGraphic" in2="BackgroundImageFix" result="shape"/>
<feColorMatrix in="SourceAlpha" type="matrix" values="0 0 0 0 0 0 0 0 0 0 0 0 0 0 0 0 0 0 127 0" result="hardAlpha"/>
<feOffset dy="4"/>
<feGaussianBlur stdDeviation="2"/>
<feComposite in2="hardAlpha" operator="arithmetic" k2="-1" k3="1"/>
<feColorMatrix type="matrix" values="0 0 0 0 0 0 0 0 0 0 0 0 0 0 0 0 0 0 0.25 0"/>
<feBlend mode="normal" in2="shape" result="effect1_innerShadow_168_2"/>
</filter>
<clipPath id="clip0_168_2">
<rect width="300" height="300" fill="white"/>
</clipPath>
</defs>
</svg>
